<?xml version="1.0" standalone="no"?>
<!DOCTYPE svg PUBLIC "-//W3C//DTD SVG 20010904//EN"
 "http://www.w3.org/TR/2001/REC-SVG-20010904/DTD/svg10.dtd">
<svg version="1.0" xmlns="http://www.w3.org/2000/svg"
 width="600.000000pt" height="600.000000pt" viewBox="0 0 600.000000 600.000000"
 preserveAspectRatio="xMidYMid meet">

<g transform="translate(0.000000,600.000000) scale(0.100000,-0.100000)"
fill="#000000" stroke="none">
<path d="M2435 4773 c-280 -39 -513 -233 -621 -518 -61 -161 -66 -211 -71
-685 -3 -239 -3 -450 -1 -469 3 -34 3 -34 54 50 141 230 368 368 659 399 50 5
486 10 993 10 l902 0 0 -23 c0 -41 -41 -171 -80 -255 -81 -172 -210 -312 -354
-382 -153 -75 -130 -73 -816 -80 l-615 -6 -94 -28 c-266 -76 -468 -239 -571
-459 -61 -128 -72 -198 -77 -469 l-5 -248 265 0 c299 0 383 8 512 51 119 40
184 79 272 162 55 53 83 89 111 145 l37 76 6 235 c5 219 7 240 28 289 13 28
40 66 59 83 68 60 82 62 392 70 241 6 297 10 365 28 270 70 467 268 579 579
24 67 66 249 66 286 0 14 -68 16 -716 16 -784 0 -749 -3 -808 59 -74 77 -40
201 66 247 39 17 88 19 548 24 l505 6 90 28 c50 15 135 51 190 79 83 43 116
68 195 147 67 67 106 116 132 165 46 87 84 216 93 318 l7 77 -1133 -1 c-624
-1 -1147 -4 -1164 -6z"/>
</g>
</svg>
